<svg width="16" height="21" viewBox="0 0 16 21" fill="none" xmlns="http://www.w3.org/2000/svg">
<path d="M8.65818 0.0299714C9.19297 0.105722 9.71356 0.271433 10.201 0.517623C11.6539 1.23252 12.6194 2.65758 12.7424 4.26728C12.804 5.30885 12.8134 6.35516 12.7708 7.39673C12.7708 7.77075 12.468 8.07375 12.0988 8.07375C12.0846 8.07375 12.0704 8.07375 12.0515 8.07375C11.6729 8.05954 11.3794 7.74234 11.3889 7.36358C11.3889 6.48772 11.3889 5.61185 11.3889 4.73598C11.4031 2.90376 9.92653 1.40769 8.095 1.39349C6.42911 1.37928 5.01405 2.6055 4.78688 4.25308C4.74902 4.7928 4.73482 5.33252 4.75375 5.87698C4.74429 6.37883 4.75375 6.88067 4.75375 7.38726C4.78688 7.77074 4.50293 8.10689 4.11958 8.14003C3.73624 8.17317 3.40022 7.8891 3.36709 7.50562C3.36709 7.46774 3.36709 7.42513 3.36709 7.38252C3.36709 6.49719 3.36236 5.60712 3.36709 4.71705C3.36709 2.37351 5.08504 0.380325 7.40403 0.0441813C7.42769 0.0394469 7.45609 0.0299766 7.47975 0.0205078H8.65345L8.65818 0.0299714Z" fill="black"/>
<path d="M8.06185 20.1043H2.7755C1.66333 20.1374 0.740468 19.2663 0.702607 18.1537C0.702607 18.1158 0.702607 18.078 0.702607 18.0401C0.702607 15.8339 0.702607 13.6276 0.702607 11.4214C0.68841 10.4414 1.37937 9.58916 2.34483 9.40925C2.5578 9.37138 2.77077 9.35717 2.98847 9.3619C6.38177 9.3619 9.77507 9.3619 13.1684 9.3619C13.9067 9.30509 14.6213 9.62704 15.0614 10.2236C15.3075 10.555 15.44 10.9621 15.4448 11.374C15.4448 13.6181 15.4542 15.867 15.4448 18.1111C15.4448 19.219 14.5408 20.109 13.4334 20.109C13.4334 20.109 13.4287 20.109 13.4239 20.109H8.05712L8.06185 20.1043ZM8.07605 18.7455H13.1873C13.3056 18.7455 13.4239 18.7408 13.5375 18.7171C13.8404 18.665 14.0581 18.4046 14.0581 18.0969C14.0581 17.9028 14.0581 17.7039 14.0581 17.5098V11.4782C14.0818 11.2415 13.9776 11.0048 13.7836 10.8675C13.618 10.768 13.4287 10.7254 13.2394 10.7444C9.77034 10.7538 6.29658 10.7302 2.82756 10.768C2.31643 10.7728 2.08927 10.9953 2.08454 11.5066V18.0685C2.06087 18.3999 2.30224 18.684 2.63352 18.7218C2.74237 18.7408 2.85122 18.7455 2.96481 18.7455H8.08079H8.07605Z" fill="black"/>
<path d="M8.7524 14.7578C8.7524 14.9851 8.7524 15.2123 8.7524 15.4396C8.74767 15.7947 8.46371 16.0835 8.10876 16.0977C7.74435 16.1308 7.42727 15.861 7.39414 15.4964C7.34681 15.004 7.34681 14.5069 7.39414 14.0145C7.432 13.7021 7.67809 13.4606 7.99045 13.4322C8.27441 13.4038 8.55363 13.5506 8.68141 13.8062C8.72874 13.9009 8.7524 14.0003 8.74767 14.1045V14.7484L8.7524 14.7578Z" fill="black"/>
</svg>
