<svg width="238" height="201" viewBox="0 0 238 201" fill="none" xmlns="http://www.w3.org/2000/svg">
<path d="M199.639 52.3054L181.349 91.4959L150.364 85.0601L151.963 80.1599L177.681 85.8882L193.995 52.1894C194.159 51.8436 194.409 51.5456 194.718 51.3204C195.544 50.7221 197.264 49.8349 199.214 50.9723C199.678 51.243 199.869 51.8186 199.641 52.3054H199.639Z" fill="#E54545"/>
<path d="M104.164 200.32H163.458V110.831L104.164 110.831L104.164 200.32Z" fill="#E54545"/>
<path d="M160.503 147.118L158.101 154.252C158.101 154.252 161.786 158.606 161.611 163.593C161.611 163.593 146.642 156.322 146.838 155.1C147.036 153.879 152.138 142.634 152.138 142.634L160.505 147.115L160.503 147.118Z" fill="black"/>
<path d="M198.686 137.962L203.063 144.088C203.063 144.088 208.752 143.652 212.69 146.714C212.69 146.714 198.03 154.589 197.155 153.716C196.279 152.84 190.152 142.121 190.152 142.121L198.686 137.964V137.962Z" fill="black"/>
<path d="M179.431 95.5131C180.425 93.5726 204.544 135.802 204.155 136.649L185.994 145.839L173.741 125.929L179.431 95.5154V95.5131Z" fill="white" stroke="black" stroke-width="0.735104" stroke-miterlimit="10"/>
<path d="M148.082 83.6744C148.082 83.6744 185.184 86.9799 183.075 102.843C183.075 102.843 184.194 114.768 165.622 149.884L146.831 143.43L162.366 111.049L116.308 110.33C116.308 110.33 100.026 105.082 105.158 83.2308L126.481 78.6514L148.082 83.6744Z" fill="white" stroke="black" stroke-width="0.735104" stroke-miterlimit="10"/>
<path d="M124.293 44.9712C124.293 44.9712 123.199 51.316 122.104 52.4103C121.01 53.5045 117.509 53.5045 117.509 53.5045L111.164 48.4724L115.759 41.6885L124.293 44.9712Z" fill="white" stroke="black" stroke-width="0.367552" stroke-miterlimit="10"/>
<path d="M126.593 45.2594C132.739 43.6883 136.448 37.4323 134.877 31.2863C133.305 25.1403 127.049 21.4316 120.903 23.0028C114.757 24.574 111.049 30.83 112.62 36.976C114.191 43.122 120.447 46.8306 126.593 45.2594Z" fill="white"/>
<path d="M123.747 22.7633C130.021 22.7633 135.124 27.8683 135.124 34.1403C135.124 40.4123 130.019 45.5173 123.747 45.5173C117.475 45.5173 112.37 40.4123 112.37 34.1403C112.37 27.8683 117.475 22.7633 123.747 22.7633ZM123.747 22.5449C117.343 22.5449 112.152 27.7363 112.152 34.1403C112.152 40.5443 117.343 45.7357 123.747 45.7357C130.151 45.7357 135.342 40.5443 135.342 34.1403C135.342 27.7363 130.151 22.5449 123.747 22.5449Z" fill="black"/>
<path d="M166.35 81.4048C167.28 81.7847 167.894 83.9914 168.672 84.7444C169.45 85.4974 170.574 84.8718 169.403 83.1383M166.254 83.7548C167.426 85.4883 166.579 86.2891 165.679 85.6908C165.28 85.4269 164.764 84.642 164.327 83.8799C163.599 82.6105 162.337 81.7346 160.89 81.5185C158.094 81.1022 152.832 80.9975 144.319 83.2384C130.447 86.8919 121.681 86.5598 119.186 72.5097L128.645 70.0869C128.754 70.3485 130.417 77.3531 130.417 77.3531C130.417 77.3531 156.053 74.4093 159.875 74.4116C163.829 74.4116 170.017 79.8669 170.777 82.7856C170.92 83.3362 170.943 84.7012 169.403 83.1405C168.995 82.7288 168.622 81.6869 167.473 80.7814M167.86 83.5455C169.032 85.279 168.215 86.0343 167.285 85.4815C166.402 84.9559 166.263 82.6742 164.928 81.6937" fill="#FCFCFC"/>
<path d="M166.35 81.4048C167.28 81.7847 167.894 83.9914 168.672 84.7444C169.45 85.4974 170.574 84.8718 169.403 83.1383M166.254 83.7548C167.426 85.4883 166.579 86.2891 165.679 85.6908C165.28 85.4269 164.764 84.642 164.327 83.8799C163.599 82.6105 162.337 81.7346 160.89 81.5185C158.094 81.1022 152.832 80.9975 144.319 83.2384C130.447 86.8919 121.681 86.5598 119.186 72.5097L128.645 70.0869C128.754 70.3485 130.417 77.3531 130.417 77.3531C130.417 77.3531 156.053 74.4093 159.875 74.4116C163.829 74.4116 170.017 79.8669 170.777 82.7856C170.92 83.3362 170.943 84.7012 169.403 83.1405C168.995 82.7288 168.622 81.6869 167.473 80.7814M167.86 83.5455C169.032 85.279 168.215 86.0343 167.285 85.4815C166.402 84.9559 166.263 82.6742 164.928 81.6937" stroke="black" stroke-width="0.735104" stroke-miterlimit="10"/>
<path d="M176.369 73.8539C178.118 74.2906 179.201 76.5337 180.307 76.6975C181.471 76.8704 181.983 75.7739 180.088 74.509M181.474 73.4648C183.369 74.7297 182.495 75.8217 181.401 75.3849C180.307 74.9481 178.775 72.978 177.681 72.978M181.474 73.4648C183.369 74.7297 182.495 75.8217 181.401 75.3849C180.307 74.9481 178.775 72.978 177.681 72.978M178.557 75.3849C180.452 76.6498 179.931 77.8032 178.775 77.5734C178.266 77.471 177.422 76.8932 176.667 76.3063C175.409 75.3258 173.775 74.964 172.228 75.3462C169.239 76.081 163.893 78.1467 156.24 83.9205C143.769 93.3296 134.796 96.6101 126.484 83.4837L135.017 77.1389C135.235 77.3573 138.518 81.9527 138.518 81.9527C138.518 81.9527 164.423 70.1821 168.274 68.6056C172.26 66.9744 180.746 69.9182 182.716 72.5435C183.087 73.0394 183.673 74.4044 181.476 73.4671C180.896 73.2191 180.09 72.3251 178.559 71.886" fill="white"/>
<path d="M176.369 73.8539C178.118 74.2906 179.201 76.5337 180.307 76.6975C181.471 76.8704 181.983 75.7739 180.088 74.509M181.474 73.4648C183.369 74.7297 182.495 75.8217 181.401 75.3849C180.307 74.9481 178.775 72.978 177.681 72.978M178.557 75.3849C180.452 76.6498 179.931 77.8032 178.775 77.5734C178.266 77.471 177.422 76.8932 176.667 76.3063C175.409 75.3258 173.775 74.964 172.228 75.3462C169.239 76.081 163.893 78.1467 156.24 83.9205C143.769 93.3296 134.796 96.6101 126.484 83.4837L135.017 77.1389C135.235 77.3573 138.518 81.9527 138.518 81.9527C138.518 81.9527 164.423 70.1821 168.274 68.6056C172.26 66.9744 180.746 69.9182 182.716 72.5435C183.087 73.0394 183.673 74.4044 181.476 73.4671C180.896 73.2191 180.09 72.3251 178.559 71.886" stroke="black" stroke-width="0.735104" stroke-miterlimit="10"/>
<path d="M53.5126 200.211H96.1792L96.1792 126.475H53.5126L53.5126 200.211Z" fill="#E54545"/>
<path d="M73.2636 137.497C74.4345 137.497 75.3838 136.548 75.3838 135.377C75.3838 134.206 74.4345 133.257 73.2636 133.257C72.0926 133.257 71.1433 134.206 71.1433 135.377C71.1433 136.548 72.0926 137.497 73.2636 137.497Z" fill="#E6F0FF"/>
<path d="M60.6999 141.114C61.5279 140.286 61.5279 138.944 60.6999 138.116C59.8719 137.288 58.5294 137.288 57.7014 138.116C56.8734 138.944 56.8734 140.286 57.7014 141.114C58.5294 141.942 59.8719 141.942 60.6999 141.114Z" fill="#E6F0FF"/>
<path d="M70.3743 150.016C71.544 150.016 72.4923 149.068 72.4923 147.898C72.4923 146.729 71.544 145.78 70.3743 145.78C69.2046 145.78 68.2563 146.729 68.2563 147.898C68.2563 149.068 69.2046 150.016 70.3743 150.016Z" fill="#E6F0FF"/>
<path d="M68.0204 161.921C68.8484 161.093 68.8484 159.751 68.0204 158.923C67.1924 158.095 65.85 158.095 65.0219 158.923C64.1939 159.751 64.1939 161.093 65.0219 161.921C65.85 162.749 67.1924 162.749 68.0204 161.921Z" fill="#E6F0FF"/>
<path d="M64.9384 175.983C65.7664 175.155 65.7664 173.812 64.9384 172.984C64.1104 172.156 62.7679 172.156 61.9399 172.984C61.1119 173.812 61.1119 175.155 61.9399 175.983C62.7679 176.811 64.1104 176.811 64.9384 175.983Z" fill="#E6F0FF"/>
<path d="M72.4923 186.236C73.6633 186.236 74.6126 185.286 74.6126 184.115C74.6126 182.944 73.6633 181.995 72.4923 181.995C71.3213 181.995 70.3721 182.944 70.3721 184.115C70.3721 185.286 71.3213 186.236 72.4923 186.236Z" fill="#E6F0FF"/>
<path d="M64.2454 190.144C64.6911 189.062 64.1745 187.822 63.0917 187.377C62.0088 186.931 60.7697 187.448 60.324 188.531C59.8784 189.613 60.3949 190.852 61.4778 191.298C62.5607 191.744 63.7997 191.227 64.2454 190.144Z" fill="#E6F0FF"/>
<path d="M79.3862 172.322C80.2142 171.494 80.2142 170.152 79.3861 169.324C78.5581 168.496 77.2157 168.496 76.3877 169.324C75.5597 170.152 75.5597 171.494 76.3877 172.322C77.2157 173.15 78.5581 173.15 79.3862 172.322Z" fill="#E6F0FF"/>
<path d="M80.0065 159.074C81.1775 159.074 82.1267 158.124 82.1267 156.953C82.1267 155.782 81.1775 154.833 80.0065 154.833C78.8355 154.833 77.8862 155.782 77.8862 156.953C77.8862 158.124 78.8355 159.074 80.0065 159.074Z" fill="#E6F0FF"/>
<path d="M91.3588 153.775C92.2698 153.039 92.412 151.704 91.6764 150.793C90.9407 149.882 89.6058 149.74 88.6948 150.476C87.7837 151.211 87.6415 152.546 88.3772 153.457C89.1128 154.368 90.4477 154.51 91.3588 153.775Z" fill="#E6F0FF"/>
<path d="M91.3595 169.187C92.2706 168.451 92.4128 167.116 91.6771 166.205C90.9415 165.294 89.6066 165.152 88.6955 165.888C87.7845 166.623 87.6423 167.958 88.3779 168.869C89.1136 169.78 90.4485 169.923 91.3595 169.187Z" fill="#E6F0FF"/>
<path d="M84.8226 181.804C85.9923 181.804 86.9405 180.856 86.9405 179.686C86.9405 178.517 85.9923 177.568 84.8226 177.568C83.6528 177.568 82.7046 178.517 82.7046 179.686C82.7046 180.856 83.6528 181.804 84.8226 181.804Z" fill="#E6F0FF"/>
<path d="M90.5476 190.995C91.6806 190.699 92.3593 189.541 92.0636 188.408C91.7678 187.275 90.6096 186.596 89.4766 186.892C88.3435 187.188 87.6648 188.346 87.9606 189.479C88.2563 190.612 89.4146 191.291 90.5476 190.995Z" fill="#E6F0FF"/>
<path d="M84.2033 144.58C85.0313 143.752 85.0313 142.41 84.2033 141.582C83.3753 140.754 82.0328 140.754 81.2048 141.582C80.3768 142.41 80.3768 143.752 81.2048 144.58C82.0328 145.408 83.3753 145.408 84.2033 144.58Z" fill="#E6F0FF"/>
<path d="M86.7699 29.5448C86.7699 29.5448 74.7355 38.0781 68.3907 23.6368C62.0458 9.19546 81.1576 25.4249 63.9955 32.9368C56.0286 35.5621 52.9643 25.2793 49.6838 20.0265C46.401 14.7759 41.1505 16.9621 40.2746 25.4954C39.1645 35.6462 33.1108 29.7018 29.8645 25.6638C26.1063 20.9888 19.1199 20.4178 14.7634 24.54C14.661 24.6378 14.5587 24.7379 14.4563 24.8402" stroke="black" stroke-width="0.735104" stroke-miterlimit="10" stroke-linecap="round"/>
<path d="M1.12744 92.0125C9.09429 89.3872 12.1586 99.6699 15.4391 104.923C18.7219 110.173 23.9724 107.987 24.8483 99.4538C25.9584 89.303 32.0121 95.2475 35.2584 99.2855C39.0166 103.96 46.003 104.531 50.3595 100.409C50.4619 100.311 50.5642 100.211 50.6666 100.109" stroke="black" stroke-width="0.735104" stroke-miterlimit="10" stroke-linecap="round"/>
<path d="M237.305 200.32H1" stroke="black" stroke-width="1.10266" stroke-miterlimit="10"/>
<path d="M88.4169 52.5918C96.9912 55.8791 104.48 56.8164 109.196 51.7524L118.824 39.0628C117.73 39.7202 114.886 34.9064 117.73 33.8122C120.573 32.7179 121.231 35.5616 121.231 35.5616C127.139 36.4375 129.546 29.872 129.546 29.872C132.171 34.4674 135.235 33.5915 135.235 33.5915C134.07 21.6708 122.769 20.9542 115.441 24.0618C115.923 23.4066 116.201 22.6195 116.201 21.7755C116.201 19.48 114.144 17.6191 111.605 17.6191C109.067 17.6191 107.01 19.48 107.01 21.7755C107.01 24.0709 109.067 25.9318 111.605 25.9318C111.797 25.9318 111.983 25.9204 112.17 25.8999C110.272 27.315 109.101 29.0234 109.199 30.7456C109.353 33.4482 106.355 32.9341 106.355 32.9341C98.0399 32.0582 97.8216 37.9662 97.8216 37.9662C97.1641 42.5616 94.3204 42.78 94.3204 42.78C89.0084 44.0153 87.1452 46.7157 86.531 48.8314C86.0828 50.3761 86.9155 52.0117 88.4192 52.5873L88.4169 52.5918Z" fill="black"/>
<path d="M122.966 51.7555C123.142 51.7396 123.326 56.1189 123.392 57.8478C123.408 58.2846 123.603 58.6918 123.933 58.9785C125.935 60.7279 133.263 67.464 136.9 75.2853C137.219 75.97 136.994 76.7867 136.38 77.2281L126.22 84.5125C125.963 84.6967 125.658 84.7991 125.341 84.8082L97.1731 85.6135C96.1517 85.6431 95.3668 84.7104 95.5738 83.7094C96.7636 77.9288 100.838 60.7484 108.882 50.998C108.946 50.9206 109.003 50.8365 109.051 50.7477L109.977 49.0233C110.391 48.2521 111.351 47.9609 112.122 48.375C114.531 49.6649 119.568 52.0809 122.966 51.7578V51.7555Z" fill="black"/>
<path d="M110.072 53.5039V57.9378" stroke="white" stroke-width="1.84159" stroke-miterlimit="10" stroke-linecap="round"/>
<path d="M120.603 57.9092H116.169" stroke="white" stroke-width="1.84159" stroke-miterlimit="10" stroke-linecap="round"/>
<path d="M109.342 64.4696L112.552 61.4121" stroke="white" stroke-width="1.84159" stroke-miterlimit="10" stroke-linecap="round"/>
<path d="M119.45 63.5781L119.072 67.9938" stroke="white" stroke-width="1.84159" stroke-miterlimit="10" stroke-linecap="round"/>
<path d="M124.5 63.6982L128.463 65.6843" stroke="white" stroke-width="1.84159" stroke-miterlimit="10" stroke-linecap="round"/>
<path d="M126.936 71.7039L131.277 70.8076" stroke="white" stroke-width="1.84159" stroke-miterlimit="10" stroke-linecap="round"/>
<path d="M124.329 77.1025L126.884 80.7265" stroke="white" stroke-width="1.84159" stroke-miterlimit="10" stroke-linecap="round"/>
<path d="M112.465 51.4453L116.428 53.4313" stroke="white" stroke-width="1.84159" stroke-miterlimit="10" stroke-linecap="round"/>
<path d="M102.888 66.5557L105.877 69.8293" stroke="white" stroke-width="1.84159" stroke-miterlimit="10" stroke-linecap="round"/>
<path d="M110.709 69.5048L115.123 69.0703" stroke="white" stroke-width="1.84159" stroke-miterlimit="10" stroke-linecap="round"/>
<path d="M115.468 72.8389L119.115 75.3618" stroke="white" stroke-width="1.84159" stroke-miterlimit="10" stroke-linecap="round"/>
<path d="M102.342 73.4941L105.986 76.0193" stroke="white" stroke-width="1.84159" stroke-miterlimit="10" stroke-linecap="round"/>
<path d="M99.4072 76.042L99.2935 80.4736" stroke="white" stroke-width="1.84159" stroke-miterlimit="10" stroke-linecap="round"/>
<path d="M108.13 80.7419L103.7 80.585" stroke="white" stroke-width="1.84159" stroke-miterlimit="10" stroke-linecap="round"/>
<path d="M116.79 82.2756L114.292 78.6152" stroke="white" stroke-width="1.84159" stroke-miterlimit="10" stroke-linecap="round"/>
<path d="M119.151 35.3301C118.508 36.2492 118.883 37.1023 119.813 37.5664C120.084 37.7028 119.875 38.1032 119.609 37.9576C118.655 37.3047 118.285 36.2332 119.149 35.3324L119.151 35.3301Z" fill="black"/>
<path d="M127.466 44.9713C125.917 44.9031 124.42 43.8998 124.056 42.3506C124.049 42.3256 124.088 42.3142 124.095 42.3392C124.5 43.8179 125.983 44.7461 127.475 44.7507C127.621 44.7507 127.614 44.9759 127.469 44.969L127.466 44.9713Z" fill="black"/>
<path d="M215.752 110.719C217.383 110.719 218.705 109.397 218.705 107.766C218.705 106.136 217.383 104.813 215.752 104.813C214.122 104.813 212.8 106.136 212.8 107.766C212.8 109.397 214.122 110.719 215.752 110.719Z" stroke="black" stroke-width="0.708303" stroke-miterlimit="10" stroke-linecap="round"/>
<path d="M17.3 10.5083C18.9309 10.5083 20.2529 9.18625 20.2529 7.55542C20.2529 5.92459 18.9309 4.60254 17.3 4.60254C15.6692 4.60254 14.3472 5.92459 14.3472 7.55542C14.3472 9.18625 15.6692 10.5083 17.3 10.5083Z" stroke="black" stroke-width="0.708303" stroke-miterlimit="10" stroke-linecap="round"/>
<path d="M123.965 46.6709C123.965 46.6709 121.119 46.6117 119.37 44.8623C119.37 44.8623 122.653 45.9566 124.074 45.6472L123.965 46.6709Z" fill="black"/>
<path d="M168.072 0.682483C177.429 0.682483 185.043 8.29444 185.043 17.6536C185.043 27.0127 177.431 34.6246 168.072 34.6246C158.713 34.6246 151.101 27.0127 151.101 17.6536C151.101 8.29444 158.713 0.682483 168.072 0.682483ZM168.072 0C158.324 0 150.418 7.90315 150.418 17.6536C150.418 27.404 158.321 35.3071 168.072 35.3071C177.822 35.3071 185.725 27.404 185.725 17.6536C185.725 7.90315 177.822 0 168.072 0Z" fill="black"/>
<path d="M168.072 4.92285V17.6512" stroke="#09AA2F" stroke-width="1.1486" stroke-linecap="round" stroke-linejoin="round"/>
<path d="M174.316 23.8961L168.072 17.6514" stroke="#4286F6" stroke-width="1.1486" stroke-linecap="round" stroke-linejoin="round"/>
<path d="M169.393 17.6518C169.393 18.3821 168.802 18.9736 168.072 18.9736C167.341 18.9736 166.75 18.3821 166.75 17.6518C166.75 16.9216 167.341 16.3301 168.072 16.3301C168.802 16.3301 169.393 16.9216 169.393 17.6518Z" fill="#FFE69F"/>
<path d="M169.485 15.3641L167.933 16.9316V14.8687C168.212 14.8191 168.499 14.8383 168.769 14.9245C169.039 15.0108 169.285 15.1616 169.485 15.3641Z" fill="#F43400"/>
<path d="M167.932 14.8682V16.9311L166.986 17.8863C166.757 17.6555 166.596 17.3656 166.519 17.0482C166.442 16.7309 166.453 16.3983 166.551 16.0868C166.648 15.7754 166.829 15.497 167.072 15.282C167.316 15.0671 167.614 14.924 167.932 14.8682Z" fill="#09AA2F"/>
<path d="M167.933 17.3154V19.3784C167.654 19.4278 167.367 19.4086 167.097 19.3224C166.827 19.2361 166.581 19.0854 166.381 18.8829L167.933 17.3154Z" fill="#F9A100"/>
<path d="M168.877 18.8821C168.619 19.1423 168.288 19.3155 167.929 19.3775V17.3146L168.877 16.3594C169.208 16.6939 169.394 17.1476 169.394 17.6207C169.394 18.0938 169.208 18.5476 168.877 18.8821Z" fill="#4286F6"/>
</svg>
