<svg width="18" height="19" viewBox="0 0 18 19" fill="none" xmlns="http://www.w3.org/2000/svg">
<path d="M9.25165 11.6047H6.59191C4.36283 11.5431 2.46505 13.2096 2.23315 15.4254C2.19056 16.0361 2.18109 16.6516 2.20949 17.267C2.23315 17.5274 2.10537 17.7736 1.88293 17.9109C1.59898 18.0908 1.22983 18.0056 1.04999 17.7263C0.997931 17.6458 0.969536 17.5558 0.960071 17.4611C0.870151 15.8609 0.874884 14.2702 1.84034 12.8688C2.76794 11.3916 4.3581 10.4637 6.09971 10.3832C8.15841 10.279 10.2171 10.279 12.2711 10.3879C14.6894 10.6389 16.6582 12.4427 17.122 14.8288C17.2356 15.6715 17.264 16.519 17.2167 17.3665C17.2214 17.7073 16.9516 17.9867 16.6109 17.9914C16.6109 17.9914 16.6014 17.9914 16.5967 17.9914C16.2512 17.9961 15.9625 17.7168 15.9578 17.3712C15.9578 17.3665 15.9578 17.357 15.9578 17.3523C15.9436 16.8646 15.9578 16.377 15.9531 15.8893C15.972 13.6926 14.3061 11.8461 12.1196 11.6426C11.1021 11.5337 10.0799 11.6331 9.25638 11.5999L9.25165 11.6047Z" fill="black"/>
<path d="M4.72681 4.8475C4.73627 2.44242 6.69085 0.501308 9.09503 0.510777C11.4992 0.520246 13.4396 2.47556 13.4301 4.88064C13.4207 7.27625 11.4755 9.21736 9.08083 9.21736C6.67665 9.21736 4.73154 7.26678 4.73154 4.86644V4.85223L4.72681 4.8475ZM9.08556 7.94381C10.7704 7.95801 12.1523 6.59923 12.1665 4.91378C12.1665 4.89958 12.1665 4.88537 12.1665 4.86644C12.1712 3.16205 10.7988 1.7796 9.09503 1.77486C7.39128 1.77013 6.00935 3.14311 6.00462 4.8475C5.98096 6.53295 7.32976 7.92013 9.01458 7.94381C9.03824 7.94381 9.06663 7.94381 9.0903 7.94381H9.08556Z" fill="black"/>
</svg>
